<svg width="340" height="216" viewBox="0 0 340 216" fill="none" xmlns="http://www.w3.org/2000/svg">
<path d="M237.012 215.974H33.3636C28.9784 215.969 24.6369 215.04 20.587 213.237C16.537 211.434 12.858 208.795 9.7599 205.468C6.66181 202.141 4.20533 198.193 2.53073 193.849C0.856124 189.505 -0.00381546 184.85 1.27254e-05 180.149V36.4779C0.0538596 27.0283 3.59177 17.985 9.842 11.3207C16.0922 4.65627 24.5476 0.911634 33.3636 0.903564H77.5667C78.0381 0.903564 78.4902 1.10429 78.8235 1.46159C79.1568 1.81888 79.3441 2.30348 79.3441 2.80878C79.3441 3.31407 79.1568 3.79867 78.8235 4.15596C78.4902 4.51326 78.0381 4.71399 77.5667 4.71399H33.3636C25.4602 4.72226 17.8827 8.0912 12.2942 14.0814C6.70565 20.0717 3.56263 28.1938 3.55491 36.6653V180.337C3.56263 188.808 6.70565 196.93 12.2942 202.921C17.8827 208.911 25.4602 212.28 33.3636 212.288H237.012C240.941 212.284 244.829 211.449 248.456 209.83C252.082 208.211 255.374 205.84 258.144 202.854C260.913 199.868 263.105 196.326 264.595 192.429C266.084 188.533 266.84 184.36 266.821 180.149V126.866C266.817 126.613 266.86 126.362 266.948 126.127C267.036 125.893 267.166 125.679 267.331 125.499C267.497 125.318 267.694 125.175 267.912 125.077C268.129 124.98 268.363 124.93 268.599 124.93H337.511C337.947 124.989 338.348 125.217 338.638 125.571C338.928 125.924 339.089 126.379 339.089 126.85C339.089 127.321 338.928 127.776 338.638 128.13C338.348 128.483 337.947 128.711 337.511 128.771H270.347V180.149C270.347 189.634 266.838 198.732 260.589 205.448C254.34 212.163 245.861 215.949 237.012 215.974Z" fill="#F4F4F4"/>
</svg>
