<svg width="20" height="20" viewBox="0 0 20 20" fill="none" xmlns="http://www.w3.org/2000/svg">
<path d="M18.6942 8.59371L14.8011 12.3887L15.7205 17.7487C15.7605 17.9831 15.6642 18.22 15.4717 18.36C15.363 18.4393 15.2336 18.4793 15.1042 18.4793C15.0049 18.4793 14.9049 18.4556 14.8136 18.4075L9.99985 15.8768L5.18673 18.4068C4.97673 18.5181 4.7211 18.5 4.5286 18.3593C4.3361 18.2193 4.23985 17.9825 4.27985 17.7481L5.19923 12.3881L1.30548 8.59371C1.13548 8.42746 1.0736 8.17871 1.14735 7.95309C1.2211 7.72746 1.41673 7.56184 1.65235 7.52746L7.03298 6.74621L9.43923 1.86996C9.64985 1.44309 10.3499 1.44309 10.5605 1.86996L12.9667 6.74621L18.3474 7.52746C18.583 7.56184 18.7786 7.72684 18.8524 7.95309C18.9261 8.17934 18.8642 8.42684 18.6942 8.59371Z" fill="#FBFBFB"/>
</svg>
